<?xml version="1.0" encoding="UTF-8" standalone="no"?>
<svg
   xmlns:dc="http://purl.org/dc/elements/1.1/"
   xmlns:cc="http://creativecommons.org/ns#"
   xmlns:rdf="http://www.w3.org/1999/02/22-rdf-syntax-ns#"
   xmlns:svg="http://www.w3.org/2000/svg"
   xmlns="http://www.w3.org/2000/svg"
   xmlns:sodipodi="http://sodipodi.sourceforge.net/DTD/sodipodi-0.dtd"
   xmlns:inkscape="http://www.inkscape.org/namespaces/inkscape"
   width="16"
   height="16"
   version="1.1"
   id="svg10"
   sodipodi:docname="ssw16.svg"
   inkscape:version="0.92.2pre0 (973e216, 2017-07-25)">
  <metadata
     id="metadata16">
    <rdf:RDF>
      <cc:Work
         rdf:about="">
        <dc:format>image/svg+xml</dc:format>
        <dc:type
           rdf:resource="http://purl.org/dc/dcmitype/StillImage" />
        <dc:title></dc:title>
      </cc:Work>
    </rdf:RDF>
  </metadata>
  <defs
     id="defs14" />
  <sodipodi:namedview
     pagecolor="#ffffff"
     bordercolor="#666666"
     borderopacity="1"
     objecttolerance="10"
     gridtolerance="10"
     guidetolerance="10"
     inkscape:pageopacity="0"
     inkscape:pageshadow="2"
     inkscape:window-width="1920"
     inkscape:window-height="998"
     id="namedview12"
     showgrid="false"
     inkscape:zoom="29.5"
     inkscape:cx="8.8085619"
     inkscape:cy="12.91884"
     inkscape:window-x="0"
     inkscape:window-y="0"
     inkscape:window-maximized="1"
     inkscape:current-layer="svg10" />
  <path
     style="fill:#197dbf;stroke:none;stroke-width:0.13114755"
     d="m 0.0338983,8.0580664 c 1.0069508,0.75325 2.6175475,1.061 3.8032787,1.48301 0.4229115,0.1505 0.9851935,0.43718 1.442623,0.32898 0.7247344,-0.17144 1.4149383,-1.02742 1.9672133,-1.49403 1.417758,-1.19787 2.7964457,-2.54949 4.3278687,-3.59664 -0.977076,1.11927 -1.9227677,2.2689 -2.8747277,3.40983 -0.593574,0.71141 -1.28939,1.40386 -1.715436,2.2295096 1.452026,0.55597 2.980459,0.9192 4.4590157,1.39932 0.401665,0.13042 1.22282,0.55334 1.627672,0.29011 0.233705,-0.1519 0.264131,-0.52644 0.324197,-0.7715 0.182689,-0.74364 0.378492,-1.4843096 0.555148,-2.2294096 0.424786,-1.7921 0.833573,-3.59013 1.279606,-5.37704 0.300853,-1.20479 0.704787,-2.43057 0.803541,-3.67212995 -1.985705,0.57202 -3.919541,1.92737995 -5.770491,2.85285995 -3.3948857,1.69744 -6.9520661,3.23421 -10.2295087,5.14713 z"
     id="path4"
     inkscape:connector-curvature="0" />
  <path
     style="fill:#197dbf;stroke:none;stroke-width:0.13114755"
     d="m 7.1158653,11.599056 c 0,1.21915 0.09209,2.46964 -0.131147,3.67213 0.87419,-0.53036 1.739672,-2.07003 2.09836,-3.01639 -0.647423,-0.24976 -1.289953,-0.49906 -1.967213,-0.65574 z"
     id="path8"
     inkscape:connector-curvature="0" />
</svg>
