<?xml version="1.0" encoding="UTF-8" standalone="no"?>
<svg
   xmlns:dc="http://purl.org/dc/elements/1.1/"
   xmlns:cc="http://creativecommons.org/ns#"
   xmlns:rdf="http://www.w3.org/1999/02/22-rdf-syntax-ns#"
   xmlns:svg="http://www.w3.org/2000/svg"
   xmlns="http://www.w3.org/2000/svg"
   xmlns:sodipodi="http://sodipodi.sourceforge.net/DTD/sodipodi-0.dtd"
   xmlns:inkscape="http://www.inkscape.org/namespaces/inkscape"
   width="256"
   height="256"
   version="1.1"
   id="svg10"
   sodipodi:docname="ssw256.svg"
   inkscape:version="0.92.2pre0 (973e216, 2017-07-25)">
  <metadata
     id="metadata16">
    <rdf:RDF>
      <cc:Work
         rdf:about="">
        <dc:format>image/svg+xml</dc:format>
        <dc:type
           rdf:resource="http://purl.org/dc/dcmitype/StillImage" />
        <dc:title></dc:title>
      </cc:Work>
    </rdf:RDF>
  </metadata>
  <defs
     id="defs14" />
  <sodipodi:namedview
     pagecolor="#ffffff"
     bordercolor="#666666"
     borderopacity="1"
     objecttolerance="10"
     gridtolerance="10"
     guidetolerance="10"
     inkscape:pageopacity="0"
     inkscape:pageshadow="2"
     inkscape:window-width="1920"
     inkscape:window-height="998"
     id="namedview12"
     showgrid="false"
     inkscape:zoom="1.84375"
     inkscape:cx="123.74844"
     inkscape:cy="93.555465"
     inkscape:window-x="0"
     inkscape:window-y="0"
     inkscape:window-maximized="1"
     inkscape:current-layer="svg10" />
  <path
     style="fill:#197dbf;stroke:none;stroke-width:2.09836054"
     d="M 0.20338983,128.53931 C 16.314603,140.59125 42.084151,145.51526 61.055849,152.26737 c 6.766584,2.40808 15.763095,6.99488 23.081967,5.26373 11.595751,-2.74318 22.639004,-16.43876 31.475414,-23.90452 22.68411,-19.16601 44.74313,-40.791919 69.2459,-57.546279 -15.63321,17.908252 -30.76428,36.302479 -45.99565,54.557369 -9.49718,11.38256 -20.63024,22.4617 -27.44698,35.67214 23.23242,8.89558 47.68735,14.7072 71.34427,22.38908 6.42665,2.08682 19.56511,8.85341 26.04275,4.64179 3.73928,-2.43032 4.2261,-8.42303 5.18715,-12.34403 2.92302,-11.89812 6.05587,-23.74903 8.88236,-35.67045 6.79659,-28.67368 13.33718,-57.442201 20.4737,-86.032785 4.81364,-19.27659 11.27659,-38.889128 12.85666,-58.75409856 C 224.43211,9.6917365 193.49073,31.377455 163.87552,46.185166 109.55736,73.344248 52.642472,97.932423 0.20338983,128.53931 Z"
     id="path4"
     inkscape:connector-curvature="0" />
  <path
     style="fill:#197dbf;stroke:none;stroke-width:2.09836054"
     d="m 113.51487,185.19505 c 0,19.50636 1.47346,39.51423 -2.09837,58.7541 13.98705,-8.48577 27.83476,-33.12052 33.57378,-48.2623 -10.35877,-3.99611 -20.63927,-7.98489 -31.47541,-10.4918 z"
     id="path8"
     inkscape:connector-curvature="0" />
</svg>
