<?xml version="1.0" encoding="UTF-8" standalone="no"?>
<svg
   xmlns:dc="http://purl.org/dc/elements/1.1/"
   xmlns:cc="http://creativecommons.org/ns#"
   xmlns:rdf="http://www.w3.org/1999/02/22-rdf-syntax-ns#"
   xmlns:svg="http://www.w3.org/2000/svg"
   xmlns="http://www.w3.org/2000/svg"
   xmlns:sodipodi="http://sodipodi.sourceforge.net/DTD/sodipodi-0.dtd"
   xmlns:inkscape="http://www.inkscape.org/namespaces/inkscape"
   width="64"
   height="64"
   version="1.1"
   id="svg10"
   sodipodi:docname="ssw64.svg"
   inkscape:version="0.92.2pre0 (973e216, 2017-07-25)">
  <metadata
     id="metadata16">
    <rdf:RDF>
      <cc:Work
         rdf:about="">
        <dc:format>image/svg+xml</dc:format>
        <dc:type
           rdf:resource="http://purl.org/dc/dcmitype/StillImage" />
        <dc:title></dc:title>
      </cc:Work>
    </rdf:RDF>
  </metadata>
  <defs
     id="defs14" />
  <sodipodi:namedview
     pagecolor="#ffffff"
     bordercolor="#666666"
     borderopacity="1"
     objecttolerance="10"
     gridtolerance="10"
     guidetolerance="10"
     inkscape:pageopacity="0"
     inkscape:pageshadow="2"
     inkscape:window-width="1920"
     inkscape:window-height="998"
     id="namedview12"
     showgrid="false"
     inkscape:zoom="7.375"
     inkscape:cx="40.965121"
     inkscape:cy="34.325555"
     inkscape:window-x="0"
     inkscape:window-y="0"
     inkscape:window-maximized="1"
     inkscape:current-layer="svg10" />
  <path
     style="fill:#197dbf;stroke:none;stroke-width:0.52459013"
     d="m 0.06779661,32.181438 c 4.02780319,3.012984 10.47019039,4.243988 15.21311539,5.932016 1.691646,0.602016 3.940773,1.74872 5.770491,1.315932 2.898938,-0.685796 5.65975,-4.109692 7.868854,-5.976132 5.671028,-4.7915 11.185784,-10.19798 17.311476,-14.386568 -3.908304,4.47706 -7.691072,9.07562 -11.498912,13.639344 -2.374296,2.84564 -5.15756,5.615424 -6.861744,8.918032 5.808104,2.223896 11.921836,3.6768 17.836064,5.597272 1.606664,0.521704 4.89128,2.213352 6.510688,1.160444 0.93482,-0.60758 1.056524,-2.105756 1.296788,-3.086004 0.730752,-2.974532 1.513968,-5.93726 2.220588,-8.917612 1.699148,-7.16842 3.334296,-14.360552 5.118428,-21.5082 C 62.057041,10.050818 63.672781,5.1476823 64.067797,0.18143831 56.124977,2.4695423 48.389633,7.8909743 40.985829,11.592902 27.406289,18.38267 13.177567,24.529714 0.06779661,32.181438 Z"
     id="path4"
     inkscape:connector-curvature="0" />
  <path
     style="fill:#197dbf;stroke:none;stroke-width:0.52459013"
     d="m 28.395665,46.345374 c 0,4.876588 0.36836,9.878556 -0.524588,14.688524 3.49676,-2.121444 6.958688,-8.280132 8.39344,-12.065572 -2.589692,-0.999032 -5.159816,-1.996224 -7.868852,-2.622952 z"
     id="path8"
     inkscape:connector-curvature="0" />
</svg>
