<?xml version="1.0" encoding="UTF-8" standalone="no"?>
<svg
   xmlns:dc="http://purl.org/dc/elements/1.1/"
   xmlns:cc="http://creativecommons.org/ns#"
   xmlns:rdf="http://www.w3.org/1999/02/22-rdf-syntax-ns#"
   xmlns:svg="http://www.w3.org/2000/svg"
   xmlns="http://www.w3.org/2000/svg"
   xmlns:sodipodi="http://sodipodi.sourceforge.net/DTD/sodipodi-0.dtd"
   xmlns:inkscape="http://www.inkscape.org/namespaces/inkscape"
   width="128"
   height="128"
   version="1.1"
   id="svg10"
   sodipodi:docname="ssw_in_out_none128.svg"
   inkscape:version="0.92.2pre0 (973e216, 2017-07-25)">
  <metadata
     id="metadata16">
    <rdf:RDF>
      <cc:Work
         rdf:about="">
        <dc:format>image/svg+xml</dc:format>
        <dc:type
           rdf:resource="http://purl.org/dc/dcmitype/StillImage" />
        <dc:title></dc:title>
      </cc:Work>
    </rdf:RDF>
  </metadata>
  <defs
     id="defs14" />
  <sodipodi:namedview
     pagecolor="#ffffff"
     bordercolor="#666666"
     borderopacity="1"
     objecttolerance="10"
     gridtolerance="10"
     guidetolerance="10"
     inkscape:pageopacity="0"
     inkscape:pageshadow="2"
     inkscape:window-width="1920"
     inkscape:window-height="998"
     id="namedview12"
     showgrid="false"
     inkscape:zoom="2.960083"
     inkscape:cx="85.014834"
     inkscape:cy="65.377266"
     inkscape:window-x="0"
     inkscape:window-y="0"
     inkscape:window-maximized="1"
     inkscape:current-layer="svg10"
     inkscape:measure-start="145.266,87.4975"
     inkscape:measure-end="145.942,87.1597" />
  <path
     style="fill:#197dbf; stroke:none;"
     d="M4 68C11.678 73.7435 23.9588 76.0901 33 79.3079C36.2247 80.4555 40.5121 82.6414 44 81.8164C49.5261 80.5091 54.7889 73.9823 59 70.4244C69.8104 61.2906 80.3229 50.9845 92 43C84.5498 51.5344 77.3389 60.3004 70.0802 69C65.5542 74.4245 60.2486 79.7044 57 86C68.0717 90.2393 79.726 93.0089 91 96.6698C94.0627 97.6643 100.324 100.889 103.411 98.8819C105.193 97.7237 105.425 94.8678 105.883 92.9992C107.276 87.329 108.769 81.6813 110.116 76C113.355 62.3352 116.472 48.6252 119.873 35C122.167 25.8135 125.247 16.4669 126 7C110.859 11.3617 96.1135 21.6963 82 28.7531C56.114 41.6961 28.9905 53.4139 4 68z"
     id="path4" />
  <path
     style="fill:#197dbf; stroke:none;"
     d="M58 95C58 104.296 58.7022 113.831 57 123C63.6657 118.956 70.265 107.216 73 100C68.0634 98.0956 63.1641 96.1947 58 95z"
     id="path8" />
  <rect
     style="fill:#000000;fill-opacity:0"
     id="rect15661"
     width="17.2582"
     height="16.107653"
     x="9.7796459"
     y="7.5761194" />
  <rect
     style="fill:#197dbf;fill-opacity:1"
     id="rect15669"
     width="23.777964"
     height="23.777964"
     x="5.7527332"
     y="4.6173306"
     ry="11.888982"
     rx="11.888982" />
  <rect
     style="fill:#197dbf;fill-opacity:1"
     id="rect15669-3"
     width="23.777964"
     height="23.777964"
     x="7.1365881"
     y="99.980408"
     ry="11.888982"
     rx="11.888982" />
  <path
     style="fill:#ff0000;fill-opacity:1;stroke-width:0.19175777"
     d="m 16.411481,123.37618 c -2.109273,-0.45784 -3.965383,-1.51703 -5.690595,-3.24735 -2.4295978,-2.43679 -3.4382572,-4.89313 -3.4278126,-8.34758 0.00524,-1.73185 0.086174,-2.24261 0.5786815,-3.65187 0.7143458,-2.04402 1.673457,-3.50467 3.2496291,-4.94895 4.128556,-3.783072 10.18567,-4.140957 14.780862,-0.87333 2.247276,1.59803 3.909883,4.05445 4.592972,6.78589 0.432935,1.73116 0.279884,5.00648 -0.312519,6.68795 -0.560424,1.5907 -2.062031,3.81805 -3.309979,4.90972 -2.787055,2.43805 -6.825338,3.47472 -10.461239,2.68552 z"
     id="path15705"
     inkscape:connector-curvature="0" />
  <path
     style="fill:#808080;fill-opacity:1;stroke-width:0.33782837"
     d="M 93.865937,97.539521 C 91.171756,96.60423 85.090845,94.694848 80.352803,93.296451 64.878439,88.729306 57.380474,86.258726 57.380474,85.727062 c 0,-0.549768 4.075048,-6.370663 6.292327,-8.988109 1.277261,-1.507779 6.578934,-7.810518 11.78149,-14.006087 5.202557,-6.195567 11.017043,-13.082863 12.921084,-15.305102 1.904038,-2.222235 3.390148,-4.112168 3.302472,-4.199848 -0.183374,-0.183373 -5.281839,3.589693 -9.973731,7.380955 C 77.656074,53.879874 59.750384,69.537283 54.93333,74.018255 46.214081,82.12917 43.742921,83.002942 36.684051,80.47099 34.781983,79.788732 29.881245,78.184976 25.793522,76.907086 21.705799,75.629193 17.221127,74.18142 15.827585,73.689805 12.871182,72.646851 6.2101989,69.481781 5.0853596,68.585472 L 4.3090708,67.966898 9.4771284,65.061375 C 21.291357,58.419328 29.811062,54.09977 53.850938,42.563519 77.566401,31.182942 85.510989,27.166777 96.737478,20.883423 c 5.388362,-3.015813 11.937212,-6.529262 14.553002,-7.807664 4.74389,-2.318456 11.54305,-5.0984225 13.51179,-5.5245462 l 1.03853,-0.2247836 -0.29173,2.4630476 c -0.47091,3.9757842 -1.49406,8.6438062 -3.98304,18.1720662 -2.58108,9.880862 -3.53896,13.809944 -8.44187,34.627408 -4.06405,17.255735 -7.98225,33.111977 -8.49692,34.385485 -1.15488,2.857656 -3.76287,2.994605 -10.761303,0.565085 z"
     id="path12"
     inkscape:connector-curvature="0" />
  <path
     style="fill:#808080;fill-opacity:1;stroke-width:0.33782837"
     d="m 57.501052,121.02144 c 0.627665,-4.53148 0.926112,-12.39878 0.714604,-18.83749 l -0.230778,-7.025318 0.964654,0.224947 c 1.605644,0.374418 8.913846,2.772892 11.4853,3.769353 l 2.412765,0.934968 -1.370635,3.04045 c -3.506364,7.77811 -8.621882,15.14594 -12.829854,18.47872 l -1.378385,1.0917 z"
     id="path14"
     inkscape:connector-curvature="0" />
</svg>
