<svg width="128" height="128" xmlns="http://www.w3.org/2000/svg">
 <metadata id="metadata16">image/svg+xml</metadata>

 <g>
  <title>background</title>
  <rect x="-1" y="-1" width="215.337482" height="215.337482" id="canvas_background" fill="none"/>
 </g>
 <g>
  <title>Layer 1</title>
  <path d="m4,68c7.678,5.7435 19.9588,8.0901 29,11.3079c3.2247,1.1476 7.5121,3.3335 11,2.5085c5.5261,-1.3073 10.7889,-7.8341 15,-11.392c10.8104,-9.1338 21.3229,-19.4399 33,-27.4244c-7.4502,8.5344 -14.6611,17.3004 -21.9198,26c-4.526,5.4245 -9.8316,10.7044 -13.0802,17c11.0717,4.2393 22.726,7.0089 34,10.6698c3.0627,0.9945 9.324,4.2192 12.411,2.2121c1.782,-1.1582 2.014,-4.0141 2.472,-5.8827c1.393,-5.6702 2.886,-11.3179 4.233,-16.9992c3.239,-13.6648 6.356,-27.3748 9.757,-41c2.294,-9.1865 5.374,-18.5331 6.127,-28c-15.141,4.3617 -29.8865,14.6963 -44,21.7531c-25.886,12.943 -53.0095,24.6608 -78,39.2469z" id="path4" fill="#197dbf"/>
  <path d="m58,95c0,9.296 0.7022,18.831 -1,28c6.6657,-4.044 13.265,-15.784 16,-23c-4.9366,-1.9044 -9.8359,-3.8053 -15,-5z" id="path8" fill="#197dbf"/>
  <path d="m97.87344,98.93768c-0.96251,-0.25363 -2.93126,-0.91025 -4.375,-1.45917c-2.49974,-0.95041 -4.81215,-1.6654 -21.625,-6.6864c-6.94947,-2.07539 -14.02709,-4.45214 -14.45103,-4.85282c-0.54458,-0.51469 3.57149,-6.23048 9.14997,-12.70613c2.0998,-2.4375 7.29292,-8.59431 11.54028,-13.68181c4.24736,-5.0875 9.10921,-10.84558 10.80412,-12.79573c1.69491,-1.95016 3.08166,-3.61494 3.08166,-3.69951c0,-0.3848 -6.79618,4.67668 -11.33187,8.43944c-3.81043,3.16109 -23.51576,20.48065 -27.54073,24.20632c-5.12657,4.74533 -8.42735,6.4734 -11.70957,6.13034c-0.83984,-0.08778 -2.8243,-0.61994 -4.40991,-1.18256c-2.90942,-1.03236 -8.97765,-3.01786 -17.54935,-5.74208c-6.78993,-2.15795 -12.11068,-4.51713 -14.65627,-6.49847l-0.57269,-0.44574l3.33783,-1.88407c11.64914,-6.57547 25.8335,-13.77641 49.05756,-24.90495c19.78133,-9.47884 28.78363,-13.97709 35.25,-17.61364c10.63934,-5.98334 14.14758,-7.89303 18.53275,-10.08818c4.30477,-2.1549 11.27353,-5.07804 14.02974,-5.88497l1.3125,-0.38425l0,0.96243c0,1.72973 -1.24295,8.37487 -2.48879,13.30573c-0.67118,2.65644 -2.3452,9.27364 -3.72004,14.70489c-1.37484,5.43125 -3.97725,16.175 -5.78313,23.875c-4.82161,20.55866 -8.74717,36.36736 -9.301,37.45629c-0.92775,1.82411 -3.20716,2.31934 -6.58203,1.43004z" id="path15776" stroke-width="0.25" fill="#ffffff"/>
  <path d="m57.24844,122.54839c0,-0.0891 0.19187,-1.53114 0.42638,-3.20453c0.34527,-2.46364 0.42851,-5.05214 0.4375,-13.60491c0.0061,-5.80932 0.08649,-10.56244 0.17862,-10.5625c1.19963,-0.00073 14.4575,4.603 14.4575,5.0203c0,0.56187 -2.48575,5.80133 -4.03643,8.50798c-3.03086,5.29025 -5.96847,9.28349 -8.59588,11.68479c-1.53685,1.4046 -2.86769,2.40649 -2.86769,2.15887z" id="path15778" stroke-width="0.25" fill="#ffffff"/>
  <path id="svg_1" d="m6.96951,36.47181l20.96074,-36.68131l20.96074,36.68131l-41.92148,0z" stroke-opacity="null" stroke-width="null" fill="#6080FF" stroke="null"/>
 </g>
</svg>