<?xml version="1.0"?>
<svg width="128" height="128" xmlns="http://www.w3.org/2000/svg" xmlns:svg="http://www.w3.org/2000/svg">
 <metadata id="metadata16">image/svg+xml</metadata>
 <g class="layer">
  <title>background</title>
  <rect fill="none" height="130" id="canvas_background" width="130" x="-1" y="-1"/>
 </g>
 <g class="layer">
  <title>Layer 1</title>
  <path d="m4,68c7.678,5.7435 19.9588,8.0901 29,11.3079c3.2247,1.1476 7.5121,3.3335 11,2.5085c5.5261,-1.3073 10.7889,-7.8341 15,-11.392c10.8104,-9.1338 21.3229,-19.4399 33,-27.4244c-7.4502,8.5344 -14.6611,17.3004 -21.9198,26c-4.526,5.4245 -9.8316,10.7044 -13.0802,17c11.0717,4.2393 22.726,7.0089 34,10.6698c3.0627,0.9945 9.324,4.2192 12.411,2.2121c1.782,-1.1582 2.014,-4.0141 2.472,-5.8827c1.393,-5.6702 2.886,-11.3179 4.233,-16.9992c3.239,-13.6648 6.356,-27.3748 9.757,-41c2.294,-9.1865 5.374,-18.5331 6.127,-28c-15.141,4.3617 -29.8865,14.6963 -44,21.7531c-25.886,12.943 -53.0095,24.6608 -78,39.2469z" fill="#76c2f2" id="path4"/>
  <path d="m58,95c0,9.296 0.7022,18.831 -1,28c6.6657,-4.044 13.265,-15.784 16,-23c-4.9366,-1.9044 -9.8359,-3.8053 -15,-5z" fill="#76c2f2" id="path8"/>
  <rect fill="#000000" fill-opacity="0" height="16.107653" id="rect15661" width="17.2582" x="9.779646" y="7.576119"/>
  <path d="m6.96951,127.55622l20.96074,-36.68131l20.96074,36.68131l-41.92148,0z" fill="#C06000" id="svg_2" stroke="null" stroke-opacity="null" stroke-width="null" transform="rotate(180 27.930252075195312,109.21556091308594) "/>
 </g>
</svg>