<?xml version="1.0" encoding="UTF-8" standalone="no"?>
<svg
   xmlns:dc="http://purl.org/dc/elements/1.1/"
   xmlns:cc="http://creativecommons.org/ns#"
   xmlns:rdf="http://www.w3.org/1999/02/22-rdf-syntax-ns#"
   xmlns:svg="http://www.w3.org/2000/svg"
   xmlns="http://www.w3.org/2000/svg"
   xmlns:sodipodi="http://sodipodi.sourceforge.net/DTD/sodipodi-0.dtd"
   xmlns:inkscape="http://www.inkscape.org/namespaces/inkscape"
   width="128"
   height="128"
   version="1.1"
   id="svg10"
   sodipodi:docname="ssw_out_none128.svg"
   inkscape:version="0.92.2pre0 (973e216, 2017-07-25)">
  <metadata
     id="metadata16">
    <rdf:RDF>
      <cc:Work
         rdf:about="">
        <dc:format>image/svg+xml</dc:format>
        <dc:type
           rdf:resource="http://purl.org/dc/dcmitype/StillImage" />
        <dc:title></dc:title>
      </cc:Work>
    </rdf:RDF>
  </metadata>
  <defs
     id="defs14" />
  <sodipodi:namedview
     pagecolor="#ffffff"
     bordercolor="#666666"
     borderopacity="1"
     objecttolerance="10"
     gridtolerance="10"
     guidetolerance="10"
     inkscape:pageopacity="0"
     inkscape:pageshadow="2"
     inkscape:window-width="1920"
     inkscape:window-height="998"
     id="namedview12"
     showgrid="false"
     inkscape:zoom="4.1861895"
     inkscape:cx="141.13874"
     inkscape:cy="32.399841"
     inkscape:window-x="0"
     inkscape:window-y="0"
     inkscape:window-maximized="1"
     inkscape:current-layer="svg10" />
  <path
     style="fill:#197dbf; stroke:none;"
     d="M4 68C11.678 73.7435 23.9588 76.0901 33 79.3079C36.2247 80.4555 40.5121 82.6414 44 81.8164C49.5261 80.5091 54.7889 73.9823 59 70.4244C69.8104 61.2906 80.3229 50.9845 92 43C84.5498 51.5344 77.3389 60.3004 70.0802 69C65.5542 74.4245 60.2486 79.7044 57 86C68.0717 90.2393 79.726 93.0089 91 96.6698C94.0627 97.6643 100.324 100.889 103.411 98.8819C105.193 97.7237 105.425 94.8678 105.883 92.9992C107.276 87.329 108.769 81.6813 110.116 76C113.355 62.3352 116.472 48.6252 119.873 35C122.167 25.8135 125.247 16.4669 126 7C110.859 11.3617 96.1135 21.6963 82 28.7531C56.114 41.6961 28.9905 53.4139 4 68z"
     id="path4" />
  <path
     style="fill:#197dbf; stroke:none;"
     d="M58 95C58 104.296 58.7022 113.831 57 123C63.6657 118.956 70.265 107.216 73 100C68.0634 98.0956 63.1641 96.1947 58 95z"
     id="path8" />
  <rect
     style="fill:#000000;fill-opacity:0"
     id="rect15661"
     width="17.2582"
     height="16.107653"
     x="9.7796459"
     y="7.5761194" />
  <rect
     style="fill:#197dbf;fill-opacity:1"
     id="rect15669"
     width="23.777964"
     height="23.777964"
     x="5.7527332"
     y="4.6173306"
     ry="11.888982"
     rx="11.888982" />
  <path
     style="fill:#808080;fill-opacity:1;stroke-width:0.23888072"
     d="M 99.146236,99.24476 C 98.425125,99.125305 96.758932,98.644625 95.443585,98.176581 89.802866,96.169429 87.755541,95.519059 78.18875,92.695279 72.641624,91.057961 66.0306,89.010957 63.497585,88.146378 60.96457,87.281799 58.54274,86.458745 58.115741,86.317371 c -0.426999,-0.141377 -0.776362,-0.383853 -0.776362,-0.538838 0,-0.421852 2.336963,-4.061959 4.066096,-6.333443 0.83711,-1.099673 2.884363,-3.569155 4.549452,-5.487737 1.665087,-1.918585 6.660229,-7.836361 11.100315,-13.150616 4.440085,-5.314256 9.628111,-11.46655 11.528945,-13.671765 1.900834,-2.205216 3.414974,-4.050003 3.364759,-4.099528 -0.05022,-0.04952 -1.428311,0.878959 -3.062432,2.063294 -5.079641,3.681482 -9.772173,7.565878 -19.856695,16.437029 -10.442033,9.185645 -12.910495,11.384545 -15.900768,14.164349 -5.910827,5.494802 -9.100967,6.85329 -13.601135,5.791903 C 38.731444,81.304165 36.79651,80.653144 35.228062,80.045304 33.659617,79.437463 28.775216,77.827189 24.373838,76.466919 15.551391,73.740294 10.793682,71.939687 7.5327469,70.09323 4.7309989,68.506782 4.2237781,68.110109 4.6088763,67.806606 5.0916989,67.426088 14.367257,62.261795 18.879581,59.861197 24.769965,56.727457 40.357856,48.961494 50.650718,44.032661 68.112529,35.670909 71.443967,34.060941 78.599763,30.525849 82.606987,28.546208 90.13173,24.541978 95.321414,21.62756 109.64817,13.581951 115.90823,10.514509 122.86906,8.1291553 l 3.06237,-1.0494205 -0.15426,1.3691775 C 125.374,12.02737 124.27971,17.521065 122.8874,22.95653 c -3.82272,14.923555 -5.83696,23.122156 -9.50754,38.698678 -4.90236,20.803793 -8.34542,34.715838 -8.81536,35.619393 -0.55858,1.074024 -1.3826,1.713998 -2.55443,1.983916 -1.21164,0.279089 -1.09256,0.279663 -2.863834,-0.01376 z"
     id="path10"
     inkscape:connector-curvature="0" />
  <path
     style="fill:#808080;fill-opacity:1;stroke-width:0.23888072"
     d="m 57.185105,122.33555 c 0.07465,-0.19453 0.327045,-1.8876 0.560884,-3.76237 0.350824,-2.8127 0.421198,-5.15598 0.402488,-13.402 l -0.02267,-9.993309 0.841732,0.157909 c 1.805825,0.338775 13.406323,4.32627 13.835951,4.7559 0.151066,0.15106 -2.613382,6.05143 -3.927334,8.3824 -3.115666,5.52724 -6.881404,10.46066 -9.819651,12.86453 -1.701993,1.39245 -2.105697,1.60752 -1.871396,0.99694 z"
     id="path12"
     inkscape:connector-curvature="0" />
</svg>
