<?xml version="1.0" encoding="UTF-8" standalone="no"?>
<svg
   xmlns:dc="http://purl.org/dc/elements/1.1/"
   xmlns:cc="http://creativecommons.org/ns#"
   xmlns:rdf="http://www.w3.org/1999/02/22-rdf-syntax-ns#"
   xmlns:svg="http://www.w3.org/2000/svg"
   xmlns="http://www.w3.org/2000/svg"
   xmlns:sodipodi="http://sodipodi.sourceforge.net/DTD/sodipodi-0.dtd"
   xmlns:inkscape="http://www.inkscape.org/namespaces/inkscape"
   width="96"
   height="96"
   version="1.1"
   id="svg10"
   sodipodi:docname="ssw96.svg"
   inkscape:version="0.92.2pre0 (973e216, 2017-07-25)">
  <metadata
     id="metadata16">
    <rdf:RDF>
      <cc:Work
         rdf:about="">
        <dc:format>image/svg+xml</dc:format>
        <dc:type
           rdf:resource="http://purl.org/dc/dcmitype/StillImage" />
        <dc:title></dc:title>
      </cc:Work>
    </rdf:RDF>
  </metadata>
  <defs
     id="defs14">
    <linearGradient
       id="linearGradient-1"
       y2="0"
       x2="0.5"
       y1="1"
       x1="0.5">
      <stop
         id="stop31"
         offset="0%"
         stop-color="#4420F1" />
      <stop
         id="stop33"
         offset="100%"
         stop-color="#9E88FF" />
    </linearGradient>
    <linearGradient
       id="linearGradient-2"
       y2="0"
       x2="0.38763118"
       y1="1"
       x1="0.56484288">
      <stop
         id="stop36"
         offset="0%"
         stop-color="#5F3EFF" />
      <stop
         id="stop38"
         offset="100%"
         stop-color="#6E62FF" />
    </linearGradient>
  </defs>
  <sodipodi:namedview
     pagecolor="#ffffff"
     bordercolor="#666666"
     borderopacity="1"
     objecttolerance="10"
     gridtolerance="10"
     guidetolerance="10"
     inkscape:pageopacity="0"
     inkscape:pageshadow="2"
     inkscape:window-width="1920"
     inkscape:window-height="998"
     id="namedview12"
     showgrid="false"
     inkscape:zoom="1.3300781"
     inkscape:cx="-109.07645"
     inkscape:cy="74.297909"
     inkscape:window-x="0"
     inkscape:window-y="0"
     inkscape:window-maximized="1"
     inkscape:current-layer="svg10" />
  <path
     id="path8"
     style="fill:#197dbf;stroke:none;stroke-width:0.80697918"
     d="m 42.951421,73.616132 c 0,7.693242 0.552551,15.584276 -0.786885,23.172414 C 47.409677,93.441787 52.602569,83.725925 54.7547,77.754063 50.870162,76.178008 47.014975,74.604849 42.951421,73.616132 Z M 0.45961823,51.271305 C 6.5013232,56.024546 16.164903,57.96656 23.27929,60.629567 c 2.537469,0.949738 5.911161,2.758758 8.655738,2.076 4.348406,-1.081904 8.489626,-6.483393 11.803279,-9.427862 8.506544,-7.559007 16.778675,-16.088193 25.967213,-22.696056 -5.862453,7.062952 -11.536604,14.317573 -17.248368,21.517242 -3.561442,4.489241 -7.736341,8.858814 -10.292616,14.068965 8.712157,3.508387 17.882754,5.800469 26.754098,8.83018 2.409994,0.823034 7.336918,3.491751 9.766033,1.830703 1.40223,-0.95851 1.584787,-3.322014 1.945181,-4.868441 1.096131,-4.69258 2.27095,-9.366538 3.33088,-14.068304 2.54873,-11.3088 5.00145,-22.655007 7.67764,-33.931034 1.80512,-7.602621 4.22873,-15.3377379 4.82125,-23.17241377 C 84.545388,4.3982292 72.942372,12.951001 61.836667,18.791112 41.467356,29.50256 20.124274,39.200049 0.45961823,51.271305 Z"
     inkscape:connector-curvature="0" />
</svg>
