<?xml version="1.0" encoding="UTF-8" standalone="no"?>
<svg
   xmlns:dc="http://purl.org/dc/elements/1.1/"
   xmlns:cc="http://creativecommons.org/ns#"
   xmlns:rdf="http://www.w3.org/1999/02/22-rdf-syntax-ns#"
   xmlns:svg="http://www.w3.org/2000/svg"
   xmlns="http://www.w3.org/2000/svg"
   xmlns:sodipodi="http://sodipodi.sourceforge.net/DTD/sodipodi-0.dtd"
   xmlns:inkscape="http://www.inkscape.org/namespaces/inkscape"
   width="48"
   height="48"
   version="1.1"
   id="svg10"
   sodipodi:docname="ssw48.svg"
   inkscape:version="0.92.2pre0 (973e216, 2017-07-25)">
  <metadata
     id="metadata16">
    <rdf:RDF>
      <cc:Work
         rdf:about="">
        <dc:format>image/svg+xml</dc:format>
        <dc:type
           rdf:resource="http://purl.org/dc/dcmitype/StillImage" />
        <dc:title></dc:title>
      </cc:Work>
    </rdf:RDF>
  </metadata>
  <defs
     id="defs14">
    <linearGradient
       id="linearGradient-1"
       y2="0"
       x2="0.5"
       y1="1"
       x1="0.5">
      <stop
         id="stop31"
         offset="0%"
         stop-color="#4420F1" />
      <stop
         id="stop33"
         offset="100%"
         stop-color="#9E88FF" />
    </linearGradient>
    <linearGradient
       id="linearGradient-2"
       y2="0"
       x2="0.38763118"
       y1="1"
       x1="0.56484288">
      <stop
         id="stop36"
         offset="0%"
         stop-color="#5F3EFF" />
      <stop
         id="stop38"
         offset="100%"
         stop-color="#6E62FF" />
    </linearGradient>
  </defs>
  <sodipodi:namedview
     pagecolor="#ffffff"
     bordercolor="#666666"
     borderopacity="1"
     objecttolerance="10"
     gridtolerance="10"
     guidetolerance="10"
     inkscape:pageopacity="0"
     inkscape:pageshadow="2"
     inkscape:window-width="1920"
     inkscape:window-height="998"
     id="namedview12"
     showgrid="false"
     inkscape:zoom="1.3300781"
     inkscape:cx="-109.07645"
     inkscape:cy="74.297909"
     inkscape:window-x="0"
     inkscape:window-y="0"
     inkscape:window-maximized="1"
     inkscape:current-layer="svg10" />
  <path
     id="path8"
     style="fill:#197dbf;stroke:none;stroke-width:0.40348959"
     d="m 21.646783,37.261076 c 0,3.846621 0.276275,7.792138 -0.393443,11.586207 2.622571,-1.673379 5.219017,-6.53131 6.295082,-9.517241 -1.942269,-0.788028 -3.869862,-1.574607 -5.901639,-2.068966 z M 0.40088089,26.088663 c 3.02085301,2.37662 7.85264301,3.347627 11.40983611,4.679131 1.268735,0.474869 2.955581,1.379379 4.327869,1.038 2.174203,-0.540952 4.244813,-3.241697 5.90164,-4.713931 4.253272,-3.779504 8.389337,-8.044097 12.983606,-11.348028 -2.931226,3.531476 -5.768302,7.158786 -8.624184,10.758621 -1.780721,2.24462 -3.86817,4.429407 -5.146308,7.034482 4.356079,1.754194 8.941377,2.900235 13.377049,4.41509 1.204997,0.411517 3.668459,1.745876 4.883017,0.915352 0.701115,-0.479255 0.792393,-1.661007 0.97259,-2.434221 0.548066,-2.34629 1.135475,-4.683269 1.66544,-7.034152 1.274365,-5.6544 2.500725,-11.327503 3.83882,-16.965517 C 46.892816,8.6321801 48.104621,4.7646211 48.400881,0.84728311 42.443766,2.6521251 36.642258,6.9285111 31.089406,9.8485661 20.90475,15.20429 10.233209,20.053035 0.40088089,26.088663 Z"
     inkscape:connector-curvature="0" />
</svg>
