<svg width="128" height="128" xmlns="http://www.w3.org/2000/svg">
 <metadata id="metadata16">image/svg+xml</metadata>

 <g>
  <title>background</title>
  <rect x="-1" y="-1" width="130" height="130" id="canvas_background" fill="none"/>
 </g>
 <g>
  <title>Layer 1</title>
  <path d="m4,68c7.678,5.7435 19.9588,8.0901 29,11.3079c3.2247,1.1476 7.5121,3.3335 11,2.5085c5.5261,-1.3073 10.7889,-7.8341 15,-11.392c10.8104,-9.1338 21.3229,-19.4399 33,-27.4244c-7.4502,8.5344 -14.6611,17.3004 -21.9198,26c-4.526,5.4245 -9.8316,10.7044 -13.0802,17c11.0717,4.2393 22.726,7.0089 34,10.6698c3.0627,0.9945 9.324,4.2192 12.411,2.2121c1.782,-1.1582 2.014,-4.0141 2.472,-5.8827c1.393,-5.6702 2.886,-11.3179 4.233,-16.9992c3.239,-13.6648 6.356,-27.3748 9.757,-41c2.294,-9.1865 5.374,-18.5331 6.127,-28c-15.141,4.3617 -29.8865,14.6963 -44,21.7531c-25.886,12.943 -53.0095,24.6608 -78,39.2469z" id="path4" fill="#197dbf"/>
  <path d="m58,95c0,9.296 0.7022,18.831 -1,28c6.6657,-4.044 13.265,-15.784 16,-23c-4.9366,-1.9044 -9.8359,-3.8053 -15,-5z" id="path8" fill="#197dbf"/>
  <rect id="rect15661" width="17.2582" height="16.107653" x="9.779646" y="7.576119" fill-opacity="0" fill="#000000"/>
  <path d="m97.873435,98.937678c-0.9625,-0.253628 -2.93125,-0.910253 -4.375,-1.45917c-2.499738,-0.950408 -4.812143,-1.665398 -21.625,-6.686398c-6.949468,-2.075392 -14.027085,-4.452135 -14.451027,-4.852817c-0.544573,-0.514695 3.571495,-6.230483 9.149974,-12.706133c2.099793,-2.437497 7.292915,-8.594312 11.540275,-13.681812c4.24736,-5.0875 9.109215,-10.84558 10.804125,-12.79573c1.694908,-1.950153 3.081653,-3.614933 3.081653,-3.69951c0,-0.384793 -6.79618,4.676682 -11.331865,8.43944c-3.810435,3.161097 -23.515757,20.480655 -27.540735,24.20632c-5.126565,4.745335 -8.427342,6.4734 -11.709567,6.13034c-0.839843,-0.08778 -2.824303,-0.619933 -4.40991,-1.182558c-2.909413,-1.032355 -8.977647,-3.01786 -17.549348,-5.74208c-6.789926,-2.157947 -12.110685,-4.517125 -14.656266,-6.498465l-0.57269,-0.44575l3.337826,-1.884067c11.649135,-6.575465 25.8335,-13.776413 49.057555,-24.904945c19.781335,-9.478847 28.78364,-13.977097 35.25,-17.61364c10.639345,-5.983342 14.147585,-7.893028 18.532755,-10.08818c4.30477,-2.154902 11.27353,-5.078046 14.02974,-5.884971l1.3125,-0.384254l0,0.962437c0,1.729725 -1.24295,8.374862 -2.48879,13.305723c-0.67118,2.65644 -2.3452,9.27364 -3.72004,14.70489c-1.37484,5.43125 -3.97725,16.175 -5.78313,23.875c-4.82161,20.558662 -8.74717,36.367362 -9.301,37.45629c-0.92775,1.824112 -3.20716,2.319347 -6.582035,1.43004z" id="path15776" stroke-width="0.25" fill="#ffffff"/>
  <path d="m57.248435,122.54839c0,-0.0891 0.191874,-1.53114 0.426388,-3.20453c0.345262,-2.46364 0.428502,-5.05214 0.4375,-13.60491c0.0061,-5.809319 0.08649,-10.562444 0.178619,-10.5625c1.199633,-0.000732 14.457493,4.603002 14.457493,5.0203c0,0.56187 -2.485749,5.80133 -4.036429,8.50798c-3.030854,5.29025 -5.968469,9.28349 -8.595873,11.68479c-1.536853,1.4046 -2.867698,2.40649 -2.867698,2.15887z" id="path15778" stroke-width="0.25" fill="#ffffff"/>
  <path d="m94.111555,97.528235c-2.483655,-0.847485 -9.210628,-2.954464 -14.948827,-4.682175c-10.865413,-3.271462 -20.382901,-6.348828 -21.166214,-6.843848c-0.397442,-0.251164 -0.391453,-0.422855 0.0468,-1.341876c0.744356,-1.560931 4.584602,-6.548331 9.64827,-12.530393c2.464872,-2.911923 8.252599,-9.779076 12.861614,-15.260341c4.609018,-5.481265 9.076766,-10.773028 9.928334,-11.759472c0.851567,-0.986444 1.464146,-1.877695 1.361288,-1.980556c-0.102861,-0.102858 -1.395667,0.68552 -2.872906,1.751953c-5.559106,4.013173 -12.458845,9.857498 -29.543699,25.024548c-9.891594,8.781245 -11.176325,9.809148 -13.709601,10.968921c-3.059919,1.400877 -4.193006,1.175171 -19.36593,-3.857584c-8.423205,-2.793919 -14.374871,-4.954173 -16.6618,-6.04767c-3.380573,-1.616425 -5.300692,-2.827305 -4.959246,-3.127441c0.30129,-0.264839 9.246834,-5.168401 14.481752,-7.938274c7.990179,-4.227725 17.921457,-9.150492 39.228702,-19.445006c21.745863,-10.506435 26.537143,-12.944509 38.941614,-19.815703c4.796104,-2.656701 10.892454,-5.896145 13.547444,-7.198762c4.60373,-2.258728 11.95437,-5.350256 13.78102,-5.796011c0.81447,-0.198754 0.85645,-0.154017 0.85645,0.912753c0,2.038715 -1.55812,9.203871 -4.98552,22.926309c-1.86103,7.451095 -5.08262,20.69489 -7.1591,29.430657c-5.44107,22.890691 -8.27087,34.202338 -9.09978,36.374784c-0.87815,2.301521 -3.94782,2.372226 -10.210665,0.235187z" id="path13" stroke-width="0.311436" fill="#808080"/>
  <path d="m57.480609,121.62574c0.502773,-2.38534 0.810851,-8.89498 0.813275,-17.18436c0.0015,-5.010221 0.120797,-9.109491 0.265181,-9.109491c0.488503,0 6.723051,2.057023 10.404645,3.432902c3.277328,1.224797 3.639582,1.434249 3.465832,2.003929c-0.486605,1.59542 -4.664677,9.38586 -6.61097,12.32681c-2.264264,3.42143 -5.124013,6.74434 -7.260669,8.43661l-1.269491,1.00545l0.192197,-0.91185z" id="path15" stroke-width="0.311436" fill="#808080"/>
  <path id="svg_2" d="m6.96951,127.55622l20.96074,-36.68131l20.96074,36.68131l-41.92148,0z" stroke-opacity="null" stroke-width="null" fill="#C06000" stroke="null" transform="rotate(180 27.930252075195312,109.21556091308594) "/>
 </g>
</svg>